<svg xmlns="http://www.w3.org/2000/svg" xmlns:xlink="http://www.w3.org/1999/xlink" viewBox="0 0 220 101.6"><defs><linearGradient id="a" x1="179.16" y1="300.8" x2="179.16" y2="219.15" gradientUnits="userSpaceOnUse"><stop offset="0" stop-color="#0150c5"/><stop offset="1" stop-color="#007dff"/></linearGradient><linearGradient id="b" x1="171.12" y1="275.54" x2="160.98" y2="301.73" gradientUnits="userSpaceOnUse"><stop offset="0"/><stop offset="1" stop-color="#58595b"/></linearGradient><linearGradient id="c" x1="212.37" y1="281.86" x2="223.07" y2="229.61" gradientUnits="userSpaceOnUse"><stop offset="0" stop-color="#0100c5"/><stop offset="0.31" stop-color="#0150c5"/><stop offset="1" stop-color="#0150c5"/></linearGradient><linearGradient id="d" x1="137.54" y1="224.97" x2="219.9" y2="221.23" gradientUnits="userSpaceOnUse"><stop offset="0" stop-color="#0100c5"/><stop offset="0.32" stop-color="#0150c5"/><stop offset="1" stop-color="#0150c5"/></linearGradient></defs><g style="isolation:isolate"><path d="M218.3,249.1c-.4,38.7-28.6,48.2-29.2,48.4h0a47.9,47.9,0,0,1-23.2-5.9l-22.1,9.2,6-23.1a48.3,48.3,0,0,1-9.8-29.4s14.1-29.2,49.1-29.2h-1.5a29.2,29.2,0,0,0,1.5,58.3h0A29.1,29.1,0,0,0,218.3,249.1Z" transform="translate(-140 -199.2)" fill="url(#a)"/><path d="M151.2,277.4l-.4-.5a47.1,47.1,0,0,1-9.4-28.2c1.2-2.3,10.4-18.7,30.2-25.4a30.6,30.6,0,0,0,16.2,55.6h1.3a30.3,30.3,0,0,0,21.3-8.7,26,26,0,0,0,4.7-5.8c-5.9,23.8-23.9,30.9-26.2,31.7a47.5,47.5,0,0,1-22.4-5.7l-.5-.3-20.2,8.4Z" transform="translate(-140 -199.2)" fill="url(#b)" style="mix-blend-mode:screen"/><path d="M238.3,248.3a49.2,49.2,0,0,1-49.2,49.2s29.2-9.4,29.2-49.2Z" transform="translate(-140 -199.2)" fill="url(#c)"/><path d="M189.1,199.2v20c-35,0-49.1,29.1-49.1,29.1A49.1,49.1,0,0,1,189.1,199.2Z" transform="translate(-140 -199.2)" fill="url(#d)"/><path d="M248.1,284.9a17.5,17.5,0,0,1-7.2-6.8,19.8,19.8,0,0,1,0-19.6,17.5,17.5,0,0,1,7.2-6.8,21.7,21.7,0,0,1,10.3-2.4,23.3,23.3,0,0,1,9,1.7,16.5,16.5,0,0,1,6.7,5.2l-6.6,5.9a10.8,10.8,0,0,0-8.6-4.3,10.5,10.5,0,0,0-5.3,1.4,9.6,9.6,0,0,0-3.6,3.6,12.3,12.3,0,0,0,0,11,9.8,9.8,0,0,0,3.6,3.7,11.5,11.5,0,0,0,5.3,1.3,10.8,10.8,0,0,0,8.6-4.3l6.6,5.9a16.5,16.5,0,0,1-6.7,5.2,23.3,23.3,0,0,1-9,1.7A21.7,21.7,0,0,1,248.1,284.9Z" transform="translate(-140 -199.2)" fill="#8097c1"/><path d="M294.7,276.9h-5.6v9.7H278.7V250h16.8a20.6,20.6,0,0,1,8.6,1.6,12.6,12.6,0,0,1,5.6,4.8,12.1,12.1,0,0,1,2,7.1,12,12,0,0,1-7.1,11.6l7.9,11.5H301.4Zm5-17.3c-1.1-1-2.7-1.4-4.9-1.4h-5.7v10.7h5.7a7.5,7.5,0,0,0,4.9-1.4,5.1,5.1,0,0,0,1.6-4A5,5,0,0,0,299.7,259.6Z" transform="translate(-140 -199.2)" fill="#8097c1"/><path d="M350.5,286.6V267.2L341,283h-4.6L327,267.7v18.9h-9.6V250H326l12.8,21.1L351.4,250h8.5v36.6Z" transform="translate(-140 -199.2)" fill="#8097c1"/></g></svg>